Coordinates
version=1
nRows=8
nColumns=33
inDegrees=yes

Units are S.I. units (second, meters, Newtons, ...)
Angles are in degrees.

endheader
time	ground_thorax_rot_x	ground_thorax_rot_y	ground_thorax_rot_z	ground_thorax_tx	ground_thorax_ty	ground_thorax_tz	clav_prot_r	clav_elev_r	scapula_abduction_r	scapula_elevation_r	scapula_upward_rot_r	scapula_winging_r	shoulder_elv_r	plane_of_elev_r	axial_rot_r	elbow_flexion_r	pro_sup_r	wrist_flex_r	wrist_dev_r	clav_prot_l	clav_elev_l	scapula_abduction_l	scapula_elevation_l	scapula_upward_rot_l	scapula_winging_l	shoulder_elv_l	plane_of_elev_l	axial_rot_l	elbow_flexion_l	pro_sup_l	wrist_flex_l	wrist_dev_l
      4.06000000	     37.41242917	     13.74425536	     17.71168529	   -189.83699618	    831.54296484	      5.98093571	     15.45526419	     37.92884356	     38.86171717	     45.00000000	    -45.00000000	   1352.06405558	  -2987.94891364	    147.85596825	   -117.94130029	    745.38300753	    171.27381504	     11.20400127	      4.97911978	     11.40899556	    -45.00000000	    -39.45437575	     45.00000000	    -42.22944823	  -1701.42176907	   -642.33917094	     18.43242462	    -56.05504394	   1823.57736495	    173.26179446	     -2.07722444	     -9.73391635
      4.07000000	     37.37395921	     13.90413770	     18.05124196	   -186.79429033	    830.98077720	      5.96874180	     15.24531762	     37.81012723	     38.90106328	     45.00000000	    -45.00000000	   1352.14965422	  -2987.94974039	    147.75982422	   -118.31126583	    745.33796681	    172.42548316	     11.10233040	      4.86558595	     11.54821663	    -45.00000000	    -39.53954370	     45.00000000	    -42.19378864	  -1701.50539188	   -642.40468603	     18.45787082	    -56.71400310	   1823.53394622	    175.06044077	     -1.98991673	     -9.56595905
      4.08000000	     37.33358551	     14.04068302	     18.39030810	   -183.57199432	    830.25869768	      5.96758976	     15.53580732	     37.97343844	     39.07528955	     45.00000000	    -45.00000000	   1352.23838076	  -2988.01541943	    147.73936585	   -118.52144220	    745.28730592	    173.79851762	     10.97465184	      4.87114938	     11.38498407	    -45.00000000	    -39.62133208	     45.00000000	    -41.67110464	  -1701.67448266	   -642.41953311	     18.20940773	    -57.22840173	   1823.57399216	    177.00876336	     -2.00242644	     -9.35324055
      4.09000000	     37.29551853	     14.22356873	     18.78678009	   -180.16054614	    829.36435350	      5.97357101	     15.59553653	     37.99198385	     39.16648591	     45.00000000	    -45.00000000	   1352.38805359	  -2988.07399421	    147.71015912	   -118.72073621	    745.21621701	    175.33578546	     10.84428282	      4.84358118	     11.33662403	    -45.00000000	    -39.65922713	     45.00000000	    -41.37046944	  -1701.82483800	   -642.47263319	     18.06260149	    -57.81872198	   1823.54676168	    178.88894613	     -2.01176306	     -9.15575142
      4.10000000	     37.23468174	     14.42663791	     19.22184587	   -176.56474856	    828.29590594	      5.98680364	     15.68830707	     38.00544381	     39.26377648	     45.00000000	    -45.00000000	   1352.56034049	  -2988.12466307	    147.69945905	   -118.84875786	    745.11279861	    177.07676579	     10.70419354	      4.84695425	     11.24307035	    -45.00000000	    -39.69115456	     45.00000000	    -41.07335607	  -1701.99799483	   -642.51703736	     17.91530719	    -58.38082346	   1823.46852640	    180.78971236	     -2.08524363	     -8.94885398
      4.11000000	     37.15649952	     14.70876846	     19.70028361	   -172.78645031	    827.04896374	      6.00432626	     15.60728922	     38.01220401	     39.27880763	     45.00000000	    -45.00000000	   1352.61595760	  -2988.22215794	    147.52992789	   -118.84823702	    745.01382444	    178.66290945	     10.57249743	      4.67621023	     11.38792151	    -45.00000000	    -39.76939848	     45.00000000	    -41.09793036	  -1702.12549178	   -642.67789429	     17.93127730	    -58.77027522	   1823.40310581	    182.31946063	     -2.00767958	     -8.78942188
      4.12000000	     37.05673463	     15.03631618	     20.24987674	   -168.83390804	    825.62252408	      6.02597090	     15.67564442	     38.05464592	     39.36666296	     45.00000000	    -45.00000000	   1352.77888158	  -2988.32036543	    147.55111630	   -118.82965154	    744.90395935	    180.39064909	     10.42348704	      4.63551551	     11.33632481	    -45.00000000	    -39.79551139	     45.00000000	    -40.94138173	  -1702.31221325	   -642.77284764	     17.81158387	    -59.11940714	   1823.35170152	    183.83259462	     -2.10313644	     -8.59463068
      4.13000000	     36.95727615	     15.35714670	     20.80935604	   -164.70694922	    824.02699135	      6.05325454	     15.77163373	     38.07919521	     39.39859195	     45.00000000	    -45.00000000	   1353.00682612	  -2988.43136547	    147.55886541	   -118.73764257	    744.74771491	    182.26784998	     10.27203964	      4.61410486	     11.24685235	    -45.00000000	    -39.77144624	     45.00000000	    -40.77582739	  -1702.52360115	   -642.89740609	     17.68071286	    -59.51118481	   1823.24534596	    185.34722855	     -2.24035385	     -8.39694710
